# xmcd
#
# Track frame offsets: 
#        150
#        14400
#        32347
#        51150
#        63562
#        84900
#        93675
#        111412
#        122062
#        136467
#
# Disc length: 1900 seconds
#
# Revision: 0
# Processed by: cddbd v1.5.2PL0 Copyright (c) Steve Scherf et al.
# Submitted via: ExactAudioCopy v0.90b4
#
DISCID=85076a0a
DTITLE=Tom Feldmann and The Get-Rites - Tribute - The Gospel Sides of
DYEAR=2010
DGENRE=Gospel
TTITLE0=Live so God Can Use You - Muddy Waters
TTITLE1=Needed Time - Lightnin' Hopkins
TTITLE2=The Lord Will Make a Way - Fred McDowell
TTITLE3=Lord I'm Discouraged - Charley Patton
TTITLE4=Leave it There - Washington Phillips
TTITLE5=It's Nobody's Fault But Mine - Blind Willie Johnson
TTITLE6=Stand Your Test in Judgement - Robert Wilkins
TTITLE7=I Am in the Heavenly Way - Booker White
TTITLE8=I'm Going Home - Dock Reed
TTITLE9=This Little Light of Mine - Son House
EXTD=
EXTT0=
EXTT1=
EXTT2=
EXTT3=
EXTT4=
EXTT5=
EXTT6=
EXTT7=
EXTT8=
EXTT9=
PLAYORDER=
